<svg xmlns="http://www.w3.org/2000/svg" version="1.1" xmlns:xlink="http://www.w3.org/1999/xlink" xmlns:svgjs="http://svgjs.dev/svgjs" width="1000" height="1000" viewBox="0 0 1000 1000"><rect width="1000" height="1000" fill="#000000"></rect><g transform="matrix(0.7,0,0,0.7,149.55735422215895,171.61660477052357)"><svg viewBox="0 0 263 247" data-background-color="#ba3b0a" preserveAspectRatio="xMidYMid meet" height="939" width="1000" xmlns="http://www.w3.org/2000/svg" xmlns:xlink="http://www.w3.org/1999/xlink"><g id="tight-bounds" transform="matrix(1,0,0,1,0.16630834224599766,-0.09997365579206985)"><svg viewBox="0 0 262.667383315508 247.2" height="247.2" width="262.667383315508"><g><svg viewBox="0 0 262.667383315508 247.2" height="247.2" width="262.667383315508"><g><svg viewBox="0 0 262.667383315508 247.2" height="247.2" width="262.667383315508"><g><svg viewBox="0 0 262.667383315508 247.2" height="247.2" width="262.667383315508"><g><svg viewBox="0 0 262.667383315508 247.2" height="247.2" width="262.667383315508"><path d="M262.052 53.02C260.818 27.36 257.298 20.227 257.298 20.227 246.493-6.202 233.009-0.506 220.895 3.292 199.507 3.446 178.206 9.091 156.867 12.119 112.079 12.581 66.908 4.986 22.342 23.717 18.156 29.464-4.343 24.846 0.745 56.304 2.078 69.39 6.944 83.913 6.795 95.922 7.462 98.026 8.388 93.202 8.784 96.23 10.167 104.39 12.426 100.541 14.279 105.365 11.698 118.246 13.55 128.971 15.316 140.21 12.204 143.135 8.215 141.749 6.425 151.449 6.24 158.479 5.239 157.145 4.14 156.837 3.338 156.632 1.72 157.402 1.992 159.608 2.918 167.152-1.058 171.514 1.436 178.904-0.28 186.91 2.622 193.838 2.226 202.511 2.177 204.255 2.449 205.744 2.881 206.154 4.795 208.361 2.004 212.672 2.301 217.342 21.935 249.262 43.236 227.195 63.352 241.872 68.575 231.608 64.648 245.516 66.735 243.36 68.365 240.846 69.551 251.263 71.391 245.362 71.675 243.668 71.243 239.665 72.255 240.435 72.786 240.846 73.255 240.743 73.329 238.382 73.441 234.841 72.465 237.048 72.206 235.201 75.009 225.861 74.317 248.081 76.948 247.158 76.824 244.438 76.058 240.538 77.627 241.051 79.183 237.151 79.232 233.918 80.615 242.693 80.664 244.592 80.911 245.926 81.307 246.85 85.629 237.305 89.926 250.237 94.458 245.926 97.236 241.205 99.904 248.492 102.719 246.696 103.707 245.259 104.707 242.693 105.658 247.004 117.303 247.928 129.713 244.079 140.753 247.158 170.253 241.41 201.779 249.518 232.885 241.923 240.22 238.998 247.839 234.841 254.989 231.506 254.989 231.506 260.781 222.371 260.781 181.316S262.015 145.393 262.201 112.703C262.386 80.013 263.25 78.679 262.015 53.02Z" opacity="1" fill="#ffffff" data-fill-palette-color="tertiary"></path><g transform="matrix(1,0,0,1,55.76831999999999,26.230666666666668)"><svg width="151.13074331550803" viewBox="2.440000057220459 -36.040000915527344 28.350000381469727 36.53000259399414" height="194.73866666666666" data-palette-color="#ba3b0a"><path d="M24.49-11.62L30.79-11.62Q30.49-8.13 28.82-5.38 27.15-2.64 24.15-1.07 21.14 0.49 16.8 0.49L16.8 0.49Q12.4 0.49 9.17-1.57 5.93-3.64 4.19-7.42 2.44-11.21 2.44-16.36L2.44-16.36 2.44-19.17Q2.44-24.34 4.22-28.11 6.01-31.88 9.29-33.96 12.57-36.04 17.04-36.04L17.04-36.04Q21.31-36.04 24.26-34.46 27.2-32.89 28.82-30.11 30.44-27.34 30.79-23.75L30.79-23.75 24.51-23.75Q24.15-27.15 22.5-29.03 20.85-30.91 17.04-30.91L17.04-30.91Q14.28-30.91 12.46-29.55 10.64-28.2 9.72-25.6 8.79-23 8.79-19.21L8.79-19.21 8.79-16.36Q8.79-12.74 9.62-10.12 10.45-7.5 12.21-6.07 13.96-4.64 16.8-4.64L16.8-4.64Q19.38-4.64 20.98-5.44 22.58-6.25 23.41-7.8 24.24-9.35 24.49-11.62L24.49-11.62Z" opacity="1" transform="matrix(1,0,0,1,0,0)" fill="#ba3b0a" class="undefined-text-0" data-fill-palette-color="quaternary" id="text-0"></path></svg></g></svg></g></svg></g></svg></g><g></g></svg></g><defs></defs></svg><rect width="262.667383315508" height="247.2" fill="none" stroke="none" visibility="hidden"></rect></g></svg></g></svg>